<svg xmlns="http://www.w3.org/2000/svg" xmlns:xlink="http://www.w3.org/1999/xlink" width="500" zoomAndPan="magnify" viewBox="0 0 375 374.999991" height="500" preserveAspectRatio="xMidYMid meet" version="1.0"><defs><g/><clipPath id="6b3320cff1"><path d="M 57.742188 255.25 L 127.8125 255.25 L 127.8125 375 L 57.742188 375 Z M 57.742188 255.25 " clip-rule="nonzero"/></clipPath><clipPath id="139dbb306d"><path d="M 57.742188 11.894531 L 127.8125 11.894531 L 127.8125 81.960938 L 57.742188 81.960938 Z M 57.742188 11.894531 " clip-rule="nonzero"/></clipPath><clipPath id="ed7907a00d"><path d="M 92.777344 11.894531 C 73.429688 11.894531 57.742188 27.578125 57.742188 46.925781 C 57.742188 66.277344 73.429688 81.960938 92.777344 81.960938 C 112.125 81.960938 127.8125 66.277344 127.8125 46.925781 C 127.8125 27.578125 112.125 11.894531 92.777344 11.894531 Z M 92.777344 11.894531 " clip-rule="nonzero"/></clipPath><clipPath id="b6e2225a8e"><path d="M 239.046875 227.449219 L 309.113281 227.449219 L 309.113281 300.441406 L 239.046875 300.441406 Z M 239.046875 227.449219 " clip-rule="nonzero"/></clipPath><clipPath id="38bdce0ff5"><path d="M 180.03125 70.148438 L 298.0625 70.148438 L 298.0625 132.046875 L 180.03125 132.046875 Z M 180.03125 70.148438 " clip-rule="nonzero"/></clipPath><clipPath id="8eee4066fe"><path d="M 188.453125 95.113281 L 218.914062 95.113281 L 218.914062 125.570312 L 188.453125 125.570312 Z M 188.453125 95.113281 " clip-rule="nonzero"/></clipPath><clipPath id="7724eb39c3"><path d="M 203.683594 95.113281 C 195.273438 95.113281 188.453125 101.929688 188.453125 110.339844 C 188.453125 118.753906 195.273438 125.570312 203.683594 125.570312 C 212.09375 125.570312 218.914062 118.753906 218.914062 110.339844 C 218.914062 101.929688 212.09375 95.113281 203.683594 95.113281 Z M 203.683594 95.113281 " clip-rule="nonzero"/></clipPath><clipPath id="3da6bc5da1"><path d="M 258.546875 95.113281 L 289.007812 95.113281 L 289.007812 125.570312 L 258.546875 125.570312 Z M 258.546875 95.113281 " clip-rule="nonzero"/></clipPath><clipPath id="8903bcbe96"><path d="M 273.777344 95.113281 C 265.367188 95.113281 258.546875 101.929688 258.546875 110.339844 C 258.546875 118.753906 265.367188 125.570312 273.777344 125.570312 C 282.1875 125.570312 289.007812 118.753906 289.007812 110.339844 C 289.007812 101.929688 282.1875 95.113281 273.777344 95.113281 Z M 273.777344 95.113281 " clip-rule="nonzero"/></clipPath></defs><rect x="-37.5" width="450" fill="#ffffff" y="-37.499999" height="449.999989" fill-opacity="1"/><rect x="-37.5" width="450" fill="#ffffff" y="-37.499999" height="449.999989" fill-opacity="1"/><g clip-path="url(#6b3320cff1)"><path fill="#fbeb78" d="M 57.742188 255.25 L 127.8125 255.25 L 127.8125 375.128906 L 57.742188 375.128906 Z M 57.742188 255.25 " fill-opacity="1" fill-rule="nonzero"/></g><g clip-path="url(#139dbb306d)"><g clip-path="url(#ed7907a00d)"><path fill="#df3821" d="M 57.742188 11.894531 L 127.8125 11.894531 L 127.8125 81.960938 L 57.742188 81.960938 Z M 57.742188 11.894531 " fill-opacity="1" fill-rule="nonzero"/></g></g><g clip-path="url(#b6e2225a8e)"><path fill="#b9e185" d="M 239.046875 227.449219 L 309.113281 227.449219 L 309.113281 300.527344 L 239.046875 300.527344 Z M 239.046875 227.449219 " fill-opacity="1" fill-rule="nonzero"/></g><g fill="#000000" fill-opacity="1"><g transform="translate(71.690801, 185.323314)"><g><path d="M 14.640625 0 L 14.640625 -142.3125 L 40.140625 -142.3125 L 40.140625 -88.28125 L 42.0625 -87.90625 C 45.4375 -92.875 49.578125 -96.707031 54.484375 -99.40625 C 59.398438 -102.113281 65.328125 -103.46875 72.265625 -103.46875 C 94.660156 -103.46875 105.859375 -90.765625 105.859375 -65.359375 L 105.859375 0 L 80.359375 0 L 80.359375 -62.140625 C 80.359375 -69.066406 78.976562 -74.09375 76.21875 -77.21875 C 73.457031 -80.351562 69.160156 -81.921875 63.328125 -81.921875 C 56.210938 -81.921875 50.566406 -79.539062 46.390625 -74.78125 C 42.222656 -70.03125 40.140625 -62.625 40.140625 -52.5625 L 40.140625 0 Z M 14.640625 0 "/></g></g></g><g fill="#000000" fill-opacity="1"><g transform="translate(71.690801, 309.713303)"><g><path d="M 14.640625 41.140625 L 14.640625 -101.53125 L 40.140625 -101.53125 L 40.140625 -88.28125 L 42.0625 -87.90625 C 45.070312 -93.0625 49.09375 -96.941406 54.125 -99.546875 C 59.15625 -102.160156 65.046875 -103.46875 71.796875 -103.46875 C 79.960938 -103.46875 87.097656 -101.53125 93.203125 -97.65625 C 99.304688 -93.789062 104.0625 -87.914062 107.46875 -80.03125 C 110.875 -72.144531 112.578125 -62.375 112.578125 -50.71875 C 112.578125 -39.125 110.78125 -29.394531 107.1875 -21.53125 C 103.601562 -13.675781 98.617188 -7.800781 92.234375 -3.90625 C 85.847656 -0.0078125 78.484375 1.9375 70.140625 1.9375 C 63.816406 1.9375 58.351562 0.878906 53.75 -1.234375 C 49.15625 -3.359375 45.257812 -6.660156 42.0625 -11.140625 L 40.140625 -10.765625 L 40.140625 41.140625 Z M 63.046875 -19.703125 C 70.660156 -19.703125 76.429688 -22.1875 80.359375 -27.15625 C 84.285156 -32.125 86.25 -39.976562 86.25 -50.71875 C 86.25 -61.457031 84.285156 -69.328125 80.359375 -74.328125 C 76.429688 -79.328125 70.660156 -81.828125 63.046875 -81.828125 C 55.929688 -81.828125 50.285156 -79.25 46.109375 -74.09375 C 41.941406 -68.9375 39.859375 -61.144531 39.859375 -50.71875 C 39.859375 -40.34375 41.941406 -32.578125 46.109375 -27.421875 C 50.285156 -22.273438 55.929688 -19.703125 63.046875 -19.703125 Z M 63.046875 -19.703125 "/></g></g></g><g fill="#000000" fill-opacity="1"><g transform="translate(182.906307, 309.713303)"><g><path d="M 100.328125 -45.015625 L 35.078125 -45.015625 C 35.804688 -36.171875 38.316406 -29.738281 42.609375 -25.71875 C 46.910156 -21.707031 52.773438 -19.703125 60.203125 -19.703125 C 66.023438 -19.703125 70.75 -20.789062 74.375 -22.96875 C 78 -25.144531 80.914062 -28.441406 83.125 -32.859375 L 85.046875 -32.859375 L 101.984375 -22 C 98.671875 -14.882812 93.671875 -9.113281 86.984375 -4.6875 C 80.296875 -0.269531 71.367188 1.9375 60.203125 1.9375 C 49.703125 1.9375 40.632812 -0.0546875 33 -4.046875 C 25.363281 -8.035156 19.472656 -13.972656 15.328125 -21.859375 C 11.179688 -29.742188 9.109375 -39.363281 9.109375 -50.71875 C 9.109375 -62.257812 11.285156 -71.984375 15.640625 -79.890625 C 20.003906 -87.804688 25.894531 -93.710938 33.3125 -97.609375 C 40.738281 -101.515625 49.085938 -103.46875 58.359375 -103.46875 C 72.710938 -103.46875 83.707031 -99.660156 91.34375 -92.046875 C 98.988281 -84.441406 102.8125 -73.273438 102.8125 -58.546875 C 102.8125 -53.203125 102.628906 -49.054688 102.265625 -46.109375 Z M 78.421875 -61.484375 C 78.179688 -69.222656 76.390625 -74.851562 73.046875 -78.375 C 69.703125 -81.90625 64.804688 -83.671875 58.359375 -83.671875 C 45.472656 -83.671875 37.894531 -76.273438 35.625 -61.484375 Z M 78.421875 -61.484375 "/></g></g></g><g fill="#000000" fill-opacity="1"><g transform="translate(180.009123, 186.580278)"><g><path d="M 59 1.9375 C 49.0625 1.9375 40.332031 -0.101562 32.8125 -4.1875 C 25.300781 -8.269531 19.472656 -14.253906 15.328125 -22.140625 C 11.179688 -30.023438 9.109375 -39.550781 9.109375 -50.71875 C 9.109375 -61.882812 11.179688 -71.425781 15.328125 -79.34375 C 19.472656 -87.257812 25.300781 -93.257812 32.8125 -97.34375 C 40.332031 -101.425781 49.0625 -103.46875 59 -103.46875 C 68.945312 -103.46875 77.675781 -101.425781 85.1875 -97.34375 C 92.707031 -93.257812 98.550781 -87.257812 102.71875 -79.34375 C 106.894531 -71.425781 108.984375 -61.882812 108.984375 -50.71875 C 108.984375 -39.550781 106.894531 -30.023438 102.71875 -22.140625 C 98.550781 -14.253906 92.707031 -8.269531 85.1875 -4.1875 C 77.675781 -0.101562 68.945312 1.9375 59 1.9375 Z M 59 -19.703125 C 74.769531 -19.703125 82.65625 -30.039062 82.65625 -50.71875 C 82.65625 -61.457031 80.628906 -69.328125 76.578125 -74.328125 C 72.535156 -79.328125 66.675781 -81.828125 59 -81.828125 C 43.226562 -81.828125 35.34375 -71.457031 35.34375 -50.71875 C 35.34375 -30.039062 43.226562 -19.703125 59 -19.703125 Z M 59 -19.703125 "/></g></g></g><g clip-path="url(#38bdce0ff5)"><path fill="#ffffff" d="M 180.03125 70.148438 L 298.019531 70.148438 L 298.019531 132.046875 L 180.03125 132.046875 Z M 180.03125 70.148438 " fill-opacity="1" fill-rule="nonzero"/></g><g clip-path="url(#8eee4066fe)"><g clip-path="url(#7724eb39c3)"><path fill="#648dcb" d="M 188.453125 95.113281 L 218.914062 95.113281 L 218.914062 125.570312 L 188.453125 125.570312 Z M 188.453125 95.113281 " fill-opacity="1" fill-rule="nonzero"/></g></g><g clip-path="url(#3da6bc5da1)"><g clip-path="url(#8903bcbe96)"><path fill="#648dcb" d="M 258.546875 95.113281 L 289.007812 95.113281 L 289.007812 125.570312 L 258.546875 125.570312 Z M 258.546875 95.113281 " fill-opacity="1" fill-rule="nonzero"/></g></g></svg>